      :::::::::  :::::::::   ::::::::::: ::::::::  ::::    ::: :::::::::: 
     :+:    :+: :+:    :+:      :+:    :+:    :+: :+:+:   :+: :+:         
    +:+    +:+ +:+    +:+      +:+    +:+    +:+ :+:+:+  +:+ +:+          
   +#++:++#+  +#++:++#+       +#+    +#+    +:+ +#+ +:+ +#+ +#++:++#      
  +#+        +#+    +#+      +#+    +#+    +#+ +#+  +#+#+# +#+            
 #+#        #+#    #+#      #+#    #+#    #+# #+#   #+#+# #+#             
###        #########       ###     ########  ###    #### ########## 



General
Complete name                    : C:\Users\Karan\Desktop\Karran Jasbir – Chandigarh [PbTone]\[Pb] Karran Jasbir Ft Honey Singh – Chandigarh -
Format                           : AVI
Format/Info                      : Audio Video Interleave
File size                        : 40.2 MiB
Duration                         : 4mn 46s
Overall bit rate                 : 1 179 Kbps
Writing application              : MEncoder Sherpya-SVN-r32492-4.2.5
Writing library                  : MPlayer

Video
ID                               : 0
Format                           : MPEG-4 Visual
Format profile                   : Simple@L3
Format settings, BVOP            : No
Format settings, QPel            : No
Format settings, GMC             : No warppoints
Format settings, Matrix          : Default (H.263)
Codec ID                         : XVID
Codec ID/Hint                    : XviD
Duration                         : 4mn 46s
Bit rate                         : 985 Kbps
Width                            : 720 pixels
Height                           : 576 pixels
Display aspect ratio             : 5:4
Frame rate                       : 29.970 fps
Standard                         : PAL
Color space                      : YUV
Chroma subsampling               : 4:2:0
Bit depth                        : 8 bits
Scan type                        : Progressive
Compression mode                 : Lossy
Bits/(Pixel*Frame)               : 0.079
Stream size                      : 33.6 MiB (84%)
Writing library                  : XviD 1.2.1 (UTC 2008-12-04)

Audio
ID                               : 1
Format                           : MPEG Audio
Format version                   : Version 1
Format profile                   : Layer 3
Mode                             : Joint stereo
Mode extension                   : MS Stereo
Codec ID                         : 55
Codec ID/Hint                    : MP3
Duration                         : 4mn 45s
Bit rate mode                    : Constant
Bit rate                         : 32.0 Kbps
Channel(s)                       : 2 channels
Sampling rate                    : 44.1 KHz
Compression mode                 : Lossy
Stream size                      : 6.13 MiB (15%)
Alignment                        : Aligned on interleaves
Interleave, duration             : 26 ms (0.78 video frame)
Interleave, preload duration     : 92 ms
Writing library                  : LAME3.98.4


Screens: http://imagehacks.in/share-81BB_4D08598B.html 
 
http://www.pbtone.net
